<mxfile host="app.diagrams.net" modified="2020-09-10T19:05:44.004Z" agent="5.0 (Windows NT 10.0; Win64; x64) AppleWebKit/537.36 (KHTML, like Gecko) Chrome/85.0.4183.102 Safari/537.36" etag="_ZaJ3qLIuhXse-ElWGTd" version="13.6.9" type="github">
  <diagram id="wJ3zXaT87ZuO8pzMoavk" name="Page-1">
    <mxGraphModel dx="1697" dy="490" grid="1" gridSize="10" guides="1" tooltips="1" connect="1" arrows="1" fold="1" page="1" pageScale="1" pageWidth="827" pageHeight="1169" math="0" shadow="0">
      <root>
        <mxCell id="0" />
        <mxCell id="1" parent="0" />
        <mxCell id="nHsNRjQS-M5WRetZeh70-1" value="Comportamientos / Funcionalidades" style="text;html=1;align=center;verticalAlign=middle;resizable=0;points=[];autosize=1;" parent="1" vertex="1">
          <mxGeometry x="-80" y="60" width="210" height="20" as="geometry" />
        </mxCell>
        <mxCell id="nHsNRjQS-M5WRetZeh70-2" value="Opinar" style="rounded=0;whiteSpace=wrap;html=1;" parent="1" vertex="1">
          <mxGeometry x="-20" y="100" width="80" height="20" as="geometry" />
        </mxCell>
        <mxCell id="nHsNRjQS-M5WRetZeh70-3" value="Socializar" style="rounded=0;whiteSpace=wrap;html=1;" parent="1" vertex="1">
          <mxGeometry x="80" y="100" width="80" height="20" as="geometry" />
        </mxCell>
        <mxCell id="nHsNRjQS-M5WRetZeh70-5" value="Gestionar datos" style="rounded=0;whiteSpace=wrap;html=1;" parent="1" vertex="1">
          <mxGeometry x="-80" y="140" width="100" height="20" as="geometry" />
        </mxCell>
        <mxCell id="nHsNRjQS-M5WRetZeh70-6" value="Registracion" style="rounded=0;whiteSpace=wrap;html=1;" parent="1" vertex="1">
          <mxGeometry x="40" y="140" width="80" height="20" as="geometry" />
        </mxCell>
        <mxCell id="nHsNRjQS-M5WRetZeh70-7" value="Estructura / Componentes" style="text;html=1;align=center;verticalAlign=middle;resizable=0;points=[];autosize=1;" parent="1" vertex="1">
          <mxGeometry x="339" y="60" width="150" height="20" as="geometry" />
        </mxCell>
        <mxCell id="nHsNRjQS-M5WRetZeh70-8" value="Administrador" style="rounded=0;whiteSpace=wrap;html=1;" parent="1" vertex="1">
          <mxGeometry x="250" y="100" width="120" height="20" as="geometry" />
        </mxCell>
        <mxCell id="nHsNRjQS-M5WRetZeh70-9" value="Prestadores de servicio" style="rounded=0;whiteSpace=wrap;html=1;" parent="1" vertex="1">
          <mxGeometry x="250" y="140" width="130" height="20" as="geometry" />
        </mxCell>
        <mxCell id="nHsNRjQS-M5WRetZeh70-10" value="Inquilino" style="rounded=0;whiteSpace=wrap;html=1;" parent="1" vertex="1">
          <mxGeometry x="381" y="100" width="80" height="20" as="geometry" />
        </mxCell>
        <mxCell id="nHsNRjQS-M5WRetZeh70-11" value="Visitantes" style="rounded=0;whiteSpace=wrap;html=1;" parent="1" vertex="1">
          <mxGeometry x="390" y="140" width="71" height="20" as="geometry" />
        </mxCell>
        <mxCell id="nHsNRjQS-M5WRetZeh70-12" value="Desempeño" style="text;html=1;align=center;verticalAlign=middle;resizable=0;points=[];autosize=1;" parent="1" vertex="1">
          <mxGeometry x="-20" y="180" width="80" height="20" as="geometry" />
        </mxCell>
        <mxCell id="nHsNRjQS-M5WRetZeh70-13" value="Eficiencia" style="rounded=0;whiteSpace=wrap;html=1;" parent="1" vertex="1">
          <mxGeometry x="-120" y="200" width="80" height="20" as="geometry" />
        </mxCell>
        <mxCell id="nHsNRjQS-M5WRetZeh70-14" value="Autonomia" style="rounded=0;whiteSpace=wrap;html=1;" parent="1" vertex="1">
          <mxGeometry x="80" y="201" width="80" height="20" as="geometry" />
        </mxCell>
        <mxCell id="nHsNRjQS-M5WRetZeh70-15" value="Respuesta&lt;span style=&quot;color: rgba(0 , 0 , 0 , 0) ; font-family: monospace ; font-size: 0px&quot;&gt;%3CmxGraphModel%3E%3Croot%3E%3CmxCell%20id%3D%220%22%2F%3E%3CmxCell%20id%3D%221%22%20parent%3D%220%22%2F%3E%3CmxCell%20id%3D%222%22%20value%3D%22Encender%22%20style%3D%22rounded%3D0%3BwhiteSpace%3Dwrap%3Bhtml%3D1%3B%22%20vertex%3D%221%22%20parent%3D%221%22%3E%3CmxGeometry%20x%3D%22-20%22%20y%3D%22100%22%20width%3D%2280%22%20height%3D%2220%22%20as%3D%22geometry%22%2F%3E%3C%2FmxCell%3E%3C%2Froot%3E%3C%2FmxGraphModel%3E&lt;/span&gt;" style="rounded=0;whiteSpace=wrap;html=1;" parent="1" vertex="1">
          <mxGeometry x="-20" y="200" width="80" height="20" as="geometry" />
        </mxCell>
        <mxCell id="nHsNRjQS-M5WRetZeh70-22" value="Aspectos Específicos de análisis" style="text;html=1;align=center;verticalAlign=middle;resizable=0;points=[];autosize=1;" parent="1" vertex="1">
          <mxGeometry x="310" y="188" width="190" height="20" as="geometry" />
        </mxCell>
        <mxCell id="nHsNRjQS-M5WRetZeh70-23" value="Preguntar" style="rounded=0;whiteSpace=wrap;html=1;" parent="1" vertex="1">
          <mxGeometry x="280" y="211" width="90" height="20" as="geometry" />
        </mxCell>
        <mxCell id="nHsNRjQS-M5WRetZeh70-24" value="Historial de datos" style="rounded=0;whiteSpace=wrap;html=1;" parent="1" vertex="1">
          <mxGeometry x="280" y="240" width="130" height="18" as="geometry" />
        </mxCell>
        <mxCell id="nHsNRjQS-M5WRetZeh70-25" value="Modelo de gestion" style="rounded=0;whiteSpace=wrap;html=1;" parent="1" vertex="1">
          <mxGeometry x="416.5" y="240" width="117" height="20" as="geometry" />
        </mxCell>
        <mxCell id="nHsNRjQS-M5WRetZeh70-26" value="Red social entre habitantes" style="rounded=0;whiteSpace=wrap;html=1;" parent="1" vertex="1">
          <mxGeometry x="377.5" y="208" width="156" height="20" as="geometry" />
        </mxCell>
        <mxCell id="EAw8L4ti1RLnLjciRUuO-1" value="Actualizar a tiempo real la opinion de la comunidad" style="rounded=0;whiteSpace=wrap;html=1;" parent="1" vertex="1">
          <mxGeometry x="-120" y="232" width="280" height="28" as="geometry" />
        </mxCell>
        <mxCell id="EAw8L4ti1RLnLjciRUuO-2" value="Graficas" style="rounded=0;whiteSpace=wrap;html=1;" parent="1" vertex="1">
          <mxGeometry x="480" y="100" width="80" height="20" as="geometry" />
        </mxCell>
        <mxCell id="EAw8L4ti1RLnLjciRUuO-3" value="Foros" style="rounded=0;whiteSpace=wrap;html=1;" parent="1" vertex="1">
          <mxGeometry x="480" y="140" width="80" height="20" as="geometry" />
        </mxCell>
        <mxCell id="ELKvYQn1-bOr84KsCWkS-1" value="Informar" style="rounded=0;whiteSpace=wrap;html=1;" vertex="1" parent="1">
          <mxGeometry x="-115" y="100" width="80" height="20" as="geometry" />
        </mxCell>
      </root>
    </mxGraphModel>
  </diagram>
</mxfile>
